<svg xmlns="http://www.w3.org/2000/svg" viewBox="0 0 127.14 96.36" role="img" aria-label="Discord">
  <path fill="#FFFFFF" d="M107.7 8.07C99.71 4.29 91.13 1.51 82.16 0A101.44 101.44 0 0 0 78.73 7c-9.6-1.44-19.14-1.44-28.53 0A101.63 101.63 0 0 0 46.77 0c-8.97 1.51-17.55 4.3-25.54 8.07C4.1 33.56-1.9 58.4.45 82.91a100.95 100.95 0 0 0 30.65 13.45c2-2.73 3.8-5.63 5.4-8.7a46.68 46.68 0 0 1-15.82-7.55c1.23-.9 2.4-1.85 3.55-2.85 18 8.35 37.52 8.35 55.42 0 1.15 1 2.32 1.95 3.55 2.85a46.54 46.54 0 0 1-15.82 7.55c1.6 3.07 3.4 5.97 5.4 8.7a100.9 100.9 0 0 0 30.65-13.45c2.63-28.16-5-52.01-20.73-74.84ZM42.27 63.85c-5.83 0-10.6-5.28-10.6-11.75 0-6.48 4.67-11.75 10.6-11.75s10.68 5.27 10.6 11.75c0 6.47-4.77 11.75-10.6 11.75Zm42.6 0c-5.83 0-10.6-5.28-10.6-11.75 0-6.48 4.67-11.75 10.6-11.75s10.68 5.27 10.6 11.75c0 6.47-4.77 11.75-10.6 11.75Z"/>
</svg>
