<svg xmlns="http://www.w3.org/2000/svg" viewBox="0 0 533.5 544.3" role="img" aria-label="Google">
  <path fill="#4285F4" d="M533.5 278.4c0-18.4-1.5-36.1-4.7-53.1H272v100.4h147.1c-6.3 34.2-25.5 63.2-54.2 82.6v68h87.6c51.2-47.1 80.9-116.6 80.9-197.9z"/>
  <path fill="#34A853" d="M272 544.3c73.5 0 135.2-24.4 180.3-66.1l-87.6-68c-24.4 16.3-55.6 25.9-92.7 25.9-71.2 0-131.5-48.1-153.1-112.7H28.1v70.8C72.8 483.3 165.8 544.3 272 544.3z"/>
  <path fill="#FBBC04" d="M118.9 323.4c-10.8-32.3-10.8-67.2 0-99.5V153H28.1c-38.4 76.5-38.4 161.8 0 238.3l90.8-70.9z"/>
  <path fill="#EA4335" d="M272 107.7c39.9-.6 78.5 14.2 107.7 41.1l80.3-80.3C406.8 18.8 340.4-4.2 272 0 165.8 0 72.8 61 28.1 153l90.8 70.9C140.4 155.8 200.8 107.7 272 107.7z"/>
</svg>
